#N canvas 0 176 1436 856 10;
#X obj 187 30 play-sample;
#X obj 185 119 dac~;
#X obj 188 85 *~;
#X msg 62 84 \; pd dsp 1;
#X msg 62 119 \; pd dsp 0;
#X text 33 63 1) Turn on audio;
#X obj 63 38 delay 1000;
#X obj 64 12 loadbang;
#X obj 329 271 store-sample E3;
#X obj 433 271 store-sample E4;
#X obj 18 271 store-sample E0;
#X obj 537 271 store-sample E5;
#X obj 122 270 store-sample E1;
#X obj 225 270 store-sample E2;
#X text 634 291 E6 für APP Wechsel;
#X obj 640 271 store-sample E6;
#X obj 742 271 store-sample E7;
#X obj 846 271 store-sample E8;
#X obj 949 271 store-sample E9;
#X obj 1053 271 store-sample E10;
#X obj 1163 271 store-sample E11;
#X obj 560 60 bng 15 250 50 0 empty empty empty 17 7 0 10 -262144 -1
-1;
#X obj 1276 271 store-sample E12;
#X obj 1384 270 store-sample E13;
#N canvas 585 108 714 693 select 0;
#X obj 206 547 outlet;
#X obj 293 546 outlet;
#X obj 152 142 bng 15 250 50 0 empty empty empty 17 7 0 10 -262144
-1 -1;
#X msg 397 213 symbol richtig;
#X msg 374 269 symbol falsch;
#X msg 76 169 symbol E0;
#X msg 76 195 symbol E1;
#X msg 77 220 symbol E2;
#X msg 76 244 symbol E3;
#X msg 162 168 symbol E4;
#X msg 162 192 symbol E5;
#X obj 241 422 t b s;
#X obj 127 25 inlet;
#X obj 395 170 bng 15 250 50 0 empty empty empty 17 7 0 10 -262144
-1 -1;
#X obj 371 170 bng 15 250 50 0 empty empty empty 17 7 0 10 -262144
-1 -1;
#X floatatom 114 79 5 0 0 0 - - -;
#X msg 163 244 symbol E7;
#X msg 239 166 symbol E8;
#X msg 238 190 symbol E9;
#X msg 237 217 symbol E10;
#X msg 236 244 symbol E11;
#X obj 79 120 sel 48 49 50 51 52 53 54 55 56 57 58 59 60 61;
#X msg 162 219 symbol E6;
#X msg 516 309 symbol raten;
#X obj 538 36 inlet;
#X obj 576 197 bng 15 250 50 0 empty empty empty 17 7 0 10 -262144
-1 -1;
#X obj 561 259 delay 1000;
#X connect 2 0 9 0;
#X connect 3 0 11 0;
#X connect 4 0 11 0;
#X connect 5 0 11 0;
#X connect 6 0 11 0;
#X connect 7 0 11 0;
#X connect 8 0 11 0;
#X connect 9 0 11 0;
#X connect 10 0 11 0;
#X connect 11 0 0 0;
#X connect 11 1 1 0;
#X connect 12 0 15 0;
#X connect 13 0 3 0;
#X connect 14 0 4 0;
#X connect 15 0 21 0;
#X connect 16 0 11 0;
#X connect 17 0 11 0;
#X connect 18 0 11 0;
#X connect 19 0 11 0;
#X connect 20 0 11 0;
#X connect 21 0 5 0;
#X connect 21 1 6 0;
#X connect 21 2 7 0;
#X connect 21 3 8 0;
#X connect 21 4 2 0;
#X connect 21 5 10 0;
#X connect 21 6 22 0;
#X connect 21 7 16 0;
#X connect 21 8 17 0;
#X connect 21 9 18 0;
#X connect 21 10 19 0;
#X connect 21 11 20 0;
#X connect 21 12 14 0;
#X connect 21 13 13 0;
#X connect 22 0 11 0;
#X connect 23 0 11 0;
#X connect 24 0 25 0;
#X connect 25 0 16 0;
#X connect 25 0 26 0;
#X connect 26 0 23 0;
#X restore 187 -15 pd select;
#X obj 191 -171 notein;
#X obj 191 -139 stripnote;
#X obj 275 -172 keyname-down;
#N canvas 790 288 567 346 tasten 0;
#X msg 118 127 48;
#X msg 128 137 49;
#X msg 138 147 50;
#X msg 148 157 51;
#X msg 158 167 52;
#X msg 168 177 53;
#X msg 178 187 54;
#X msg 208 209 56;
#X msg 239 238 58;
#X msg 186 202 55;
#X obj 215 25 inlet;
#X obj 92 251 outlet;
#X msg 253 253 59;
#X msg 218 230 57;
#X obj 216 79 sel q w e r t a s i d f y x;
#X connect 0 0 11 0;
#X connect 1 0 11 0;
#X connect 2 0 11 0;
#X connect 3 0 11 0;
#X connect 4 0 11 0;
#X connect 5 0 11 0;
#X connect 6 0 11 0;
#X connect 7 0 11 0;
#X connect 8 0 11 0;
#X connect 9 0 11 0;
#X connect 10 0 14 0;
#X connect 12 0 11 0;
#X connect 13 0 11 0;
#X connect 14 0 0 0;
#X connect 14 1 1 0;
#X connect 14 2 2 0;
#X connect 14 3 3 0;
#X connect 14 4 4 0;
#X connect 14 5 5 0;
#X connect 14 6 6 0;
#X connect 14 7 9 0;
#X connect 14 8 7 0;
#X connect 14 9 13 0;
#X connect 14 10 8 0;
#X connect 14 11 12 0;
#X restore 275 -138 pd tasten;
#X obj 191 -94 sel 55;
#X obj 379 11 hsl 128 15 0 1 0 0 empty empty empty -2 -6 0 8 -262144
-1 -1 12700 1;
#X text 306 -13 Volume;
#X obj 565 -142 loadbang;
#X text 307 -31 2) Adjust the volume;
#X floatatom 300 40 5 0 0 0 - - -;
#X obj 134 -63 s wechsel;
#X obj 563 -39 r wechsel;
#X obj 480 100 scan_load_samples;
#X obj 300 183 l2s;
#X obj 336 186 l2s;
#X obj 378 189 l2s;
#X obj 419 189 l2s;
#X obj 459 188 l2s;
#X obj 496 187 l2s;
#X obj 532 185 l2s;
#X obj 569 184 l2s;
#X obj 599 182 l2s;
#X obj 629 184 l2s;
#X obj 664 181 l2s;
#X obj 706 177 l2s;
#X obj 709 136 l2s;
#X symbolatom 759 175 80 0 0 0 - - -;
#X obj 839 144 s ansage;
#X msg 840 118 55;
#X obj 135 -43 r ansage;
#X obj 706 36 delay 2000;
#N canvas 546 23 872 792 raten 1;
#X obj 292 462 random 3;
#X floatatom 245 506 5 0 0 0 - - -;
#X obj 344 533 sel 0 1 2;
#X obj 286 399 bng 15 250 50 0 empty empty empty 17 7 0 10 -262144
-1 -1;
#X obj 196 690 store-sample falsch;
#X msg 488 354 61;
#X msg 286 348 60;
#X obj 470 717 store-sample richtig;
#X floatatom 480 493 5 0 0 0 - - -;
#X obj 499 404 bng 15 250 50 0 empty empty empty 17 7 0 10 -262144
-1 -1;
#X obj 579 520 sel 0 1 2 3;
#X obj 527 449 random 4;
#X floatatom 464 135 5 0 0 0 - - -;
#X floatatom 336 132 5 0 0 0 - - -;
#X floatatom 330 230 5 0 0 0 - - -;
#X floatatom 388 231 5 0 0 0 - - -;
#X floatatom 453 231 5 0 0 0 - - -;
#X obj 382 281 sel 0;
#X obj 169 13 inlet;
#X obj 263 65 shuffle 48 59;
#X obj 252 109 sel 55;
#X obj 449 49 tgl 15 0 empty empty empty 17 7 0 10 -262144 -1 -1 1
1;
#X obj 437 87 spigot;
#X obj 259 32 bng 15 250 50 0 empty empty empty 17 7 0 10 -262144 -1
-1;
#X floatatom 285 29 5 0 0 0 - - -;
#X floatatom 329 29 5 0 0 0 - - -;
#X obj 342 176 expr $f1 \; $f2 \; if($f1 == $f2 \, 1 \, 0);
#X obj 329 288 f;
#X obj 98 13 inlet;
#X obj 374 23 inlet;
#X obj 386 468 outlet;
#X msg 226 611 symbol rf/falsch.wav;
#X msg 258 654 symbol rf/ne.wav;
#X msg 227 720 symbol rf/mm.wav;
#X msg 612 596 symbol rf/richtig.wav;
#X msg 632 627 symbol rf/nanukloar.wav;
#X msg 641 665 symbol rf/nunu.wav;
#X msg 648 698 symbol rf/ja.wav;
#X obj 153 451 outlet;
#X obj 683 451 outlet;
#X obj 276 157 t b;
#X obj 179 408 spigot;
#X obj 584 395 spigot;
#X obj 623 272 tgl 15 0 empty empty empty 17 7 0 10 -262144 -1 -1 1
1;
#X obj 444 443 s reshuffle;
#X obj 240 3 r reshuffle;
#X obj 267 277 bng 15 250 50 0 empty empty empty 17 7 0 10 -262144
-1 -1;
#X obj 118 208 metro 4000;
#X obj 160 240 delay 4000;
#X obj 385 386 spigot;
#X text 529 355 sende richtig;
#X text 175 349 sende falsch;
#X connect 0 0 1 0;
#X connect 0 0 2 0;
#X connect 2 0 31 0;
#X connect 2 1 32 0;
#X connect 2 2 33 0;
#X connect 3 0 0 0;
#X connect 5 0 9 0;
#X connect 5 0 42 0;
#X connect 6 0 3 0;
#X connect 6 0 41 0;
#X connect 9 0 11 0;
#X connect 9 0 44 0;
#X connect 10 0 34 0;
#X connect 10 1 35 0;
#X connect 10 2 36 0;
#X connect 10 3 37 0;
#X connect 11 0 8 0;
#X connect 11 0 10 0;
#X connect 12 0 26 0;
#X connect 13 0 26 1;
#X connect 13 0 40 0;
#X connect 15 0 27 1;
#X connect 16 0 17 0;
#X connect 17 0 6 0;
#X connect 17 1 5 0;
#X connect 18 0 23 0;
#X connect 19 0 20 0;
#X connect 20 1 13 0;
#X connect 21 0 22 1;
#X connect 21 0 43 0;
#X connect 21 0 47 0;
#X connect 22 0 12 0;
#X connect 23 0 19 0;
#X connect 24 0 19 1;
#X connect 25 0 19 2;
#X connect 26 0 14 0;
#X connect 26 1 15 0;
#X connect 26 2 16 0;
#X connect 27 0 49 0;
#X connect 28 0 22 0;
#X connect 29 0 21 0;
#X connect 31 0 4 0;
#X connect 32 0 4 0;
#X connect 33 0 4 0;
#X connect 34 0 7 0;
#X connect 35 0 7 0;
#X connect 36 0 7 0;
#X connect 37 0 7 0;
#X connect 40 0 26 0;
#X connect 41 0 38 0;
#X connect 42 0 39 0;
#X connect 43 0 41 1;
#X connect 43 0 42 1;
#X connect 43 0 49 1;
#X connect 45 0 23 0;
#X connect 46 0 27 0;
#X connect 47 0 48 0;
#X connect 48 0 46 0;
#X connect 49 0 30 0;
#X restore 250 -66 pd raten;
#X obj 292 -107 tgl 15 0 empty empty empty 17 7 0 10 -262144 -1 -1
1 1;
#X msg 280 7 1;
#X obj 705 -46 store-sample raten;
#X msg 706 -86 symbol raten.wav;
#X floatatom 346 -85 5 0 0 0 - - -;
#X obj 318 -55 spigot;
#X obj 573 6 tgl 15 0 empty empty empty 17 7 0 10 -262144 -1 -1 0 1
;
#X obj 529 32 spigot;
#X obj 388 -155 == 0;
#X msg 455 -22 1;
#X connect 0 0 2 0;
#X connect 2 0 1 0;
#X connect 2 0 1 1;
#X connect 6 0 3 0;
#X connect 7 0 6 0;
#X connect 21 0 37 0;
#X connect 21 0 53 0;
#X connect 24 0 0 0;
#X connect 24 1 0 1;
#X connect 25 0 26 0;
#X connect 25 1 26 1;
#X connect 26 0 29 0;
#X connect 27 0 28 0;
#X connect 28 0 29 0;
#X connect 29 0 35 0;
#X connect 29 1 24 0;
#X connect 29 1 56 0;
#X connect 30 0 34 0;
#X connect 32 0 66 0;
#X connect 32 0 55 0;
#X connect 32 0 60 0;
#X connect 32 0 63 0;
#X connect 34 0 2 1;
#X connect 36 0 63 0;
#X connect 36 0 64 0;
#X connect 37 0 38 0;
#X connect 37 1 39 0;
#X connect 37 2 40 0;
#X connect 37 3 41 0;
#X connect 37 4 42 0;
#X connect 37 5 43 0;
#X connect 37 6 44 0;
#X connect 37 7 45 0;
#X connect 37 8 46 0;
#X connect 37 9 47 0;
#X connect 37 10 48 0;
#X connect 37 11 49 0;
#X connect 37 14 50 0;
#X connect 38 0 10 0;
#X connect 39 0 12 0;
#X connect 40 0 13 0;
#X connect 41 0 8 0;
#X connect 42 0 9 0;
#X connect 43 0 11 0;
#X connect 44 0 15 0;
#X connect 45 0 16 0;
#X connect 46 0 17 0;
#X connect 47 0 18 0;
#X connect 48 0 19 0;
#X connect 49 0 20 0;
#X connect 50 0 51 0;
#X connect 53 0 52 0;
#X connect 54 0 24 0;
#X connect 55 0 21 0;
#X connect 56 0 24 0;
#X connect 56 1 24 0;
#X connect 56 2 24 0;
#X connect 57 0 56 2;
#X connect 57 0 56 1;
#X connect 57 0 61 0;
#X connect 57 0 62 0;
#X connect 58 0 0 2;
#X connect 60 0 59 0;
#X connect 61 0 62 1;
#X connect 62 0 24 1;
#X connect 63 0 64 1;
#X connect 63 0 65 0;
#X connect 64 0 21 0;
#X connect 65 0 57 0;
#X connect 66 0 30 0;
#X connect 66 0 58 0;
