#N canvas 346 22 1103 829 10;
#X obj 248 169 bng 15 250 50 0 empty empty empty 0 -6 0 8 -262144 -1
-1;
#X obj 165 117 folder_list;
#X msg 152 35 bang;
#X msg 279 57 symbol oud-samples/*/;
#X floatatom 421 212 5 0 0 0 - - -;
#X msg 453 148 0;
#X text 470 105 increment;
#X obj 421 184 float;
#X obj 479 184 + 1;
#X msg 351 157 bang;
#X text 491 148 reset;
#X obj 212 292 list append;
#X msg 358 288 symbol;
#X text 433 275 entferne space zwischen den beiden symbolen;
#X symbolatom 213 378 80 0 0 0 - - -;
#X obj 213 345 l2s;
#X floatatom 706 400 5 0 0 0 - - -;
#X obj 716 450 hradio 15 1 0 8 empty empty empty 0 -8 0 10 -262144
-1 -1 1;
#X obj 707 363 mod;
#X obj 826 302 f;
#X obj 899 309 + 1;
#X obj 825 260 bng 15 250 50 0 empty empty empty 17 7 0 10 -262144
-1 -1;
#X text 615 342 comment;
#X obj 649 315 + 1;
#X obj 420 446 expr $f1 \; if($f1 == $f2 \, 1 \, 0) \;;
#X obj 375 404 t b;
#X obj 249 501 spigot;
#X obj 166 539 folder_list;
#X msg 209 242 symbol *.wav;
#X floatatom 415 611 5 0 0 0 - - -;
#X msg 447 547 0;
#X obj 415 583 float;
#X obj 473 583 + 1;
#X msg 340 564 bang;
#X text 485 547 reset;
#X obj 314 645 list prepend;
#X obj 310 700 route 0 1 2 3 4 5 6 7 8 9 10 11 12;
#X obj 822 210 inlet;
#X obj 281 20 loadbang;
#X obj 311 799 outlet;
#X obj 321 809 outlet;
#X obj 331 819 outlet;
#X obj 341 829 outlet;
#X obj 351 839 outlet;
#X obj 361 849 outlet;
#X obj 371 859 outlet;
#X obj 381 869 outlet;
#X obj 391 879 outlet;
#X obj 401 889 outlet;
#X obj 411 899 outlet;
#X obj 421 909 outlet;
#X obj 431 919 outlet;
#X obj 441 929 outlet;
#X obj 214 763 spigot;
#X obj 212 813 print allfiles;
#X obj 125 592 spigot;
#X obj 758 838 textfile;
#X msg 804 766 bang;
#X msg 789 736 rewind;
#X obj 855 717 t b;
#X msg 764 664 read \$1info.txt;
#X obj 590 881 outlet;
#X connect 0 0 28 0;
#X connect 0 0 12 0;
#X connect 1 0 0 0;
#X connect 1 0 9 0;
#X connect 1 0 11 0;
#X connect 1 0 55 0;
#X connect 2 0 1 0;
#X connect 2 0 5 0;
#X connect 2 0 27 0;
#X connect 2 0 3 0;
#X connect 2 0 30 0;
#X connect 3 0 1 1;
#X connect 4 0 23 0;
#X connect 4 0 24 1;
#X connect 4 0 25 0;
#X connect 5 0 7 1;
#X connect 7 0 4 0;
#X connect 7 0 8 0;
#X connect 8 0 7 1;
#X connect 9 0 7 0;
#X connect 11 0 15 0;
#X connect 12 0 15 1;
#X connect 14 0 26 0;
#X connect 15 0 14 0;
#X connect 16 0 17 0;
#X connect 16 0 24 0;
#X connect 18 0 16 0;
#X connect 19 0 20 0;
#X connect 19 0 18 0;
#X connect 20 0 19 1;
#X connect 21 0 19 0;
#X connect 21 0 2 0;
#X connect 23 0 18 1;
#X connect 24 1 26 1;
#X connect 24 1 55 1;
#X connect 25 0 24 0;
#X connect 26 0 27 1;
#X connect 27 0 33 0;
#X connect 27 0 35 0;
#X connect 28 0 11 1;
#X connect 29 0 35 1;
#X connect 30 0 31 1;
#X connect 31 0 29 0;
#X connect 31 0 32 0;
#X connect 32 0 31 1;
#X connect 33 0 31 0;
#X connect 35 0 36 0;
#X connect 36 0 39 0;
#X connect 36 0 53 0;
#X connect 36 1 40 0;
#X connect 36 1 53 0;
#X connect 36 2 41 0;
#X connect 36 2 53 0;
#X connect 36 3 42 0;
#X connect 36 3 53 0;
#X connect 36 4 43 0;
#X connect 36 4 53 0;
#X connect 36 5 44 0;
#X connect 36 5 53 0;
#X connect 36 6 45 0;
#X connect 36 6 53 0;
#X connect 36 7 46 0;
#X connect 36 7 53 0;
#X connect 36 8 47 0;
#X connect 36 8 53 0;
#X connect 36 9 48 0;
#X connect 36 9 53 0;
#X connect 36 10 49 0;
#X connect 36 10 53 0;
#X connect 36 11 50 0;
#X connect 36 11 53 0;
#X connect 36 12 51 0;
#X connect 36 12 53 0;
#X connect 36 13 52 0;
#X connect 36 13 53 0;
#X connect 37 0 21 0;
#X connect 38 0 3 0;
#X connect 53 0 54 0;
#X connect 55 0 60 0;
#X connect 56 0 61 0;
#X connect 57 0 56 0;
#X connect 58 0 56 0;
#X connect 59 0 58 0;
#X connect 59 0 57 0;
#X connect 60 0 56 0;
#X connect 60 0 59 0;
#X coords 0 -1 1 1 185 20 1 100 100;
